<svg width="65" height="40" viewBox="0 0 65 40" fill="none" xmlns="http://www.w3.org/2000/svg">
<g id="*&#227;&#131;&#173;&#227;&#130;&#180;">
<g id="web coder">
<path id="Vector" d="M53.4544 17.3303H57.4062V29.4687C57.4062 30.8316 57.0807 32.0242 56.4297 33.0464C55.7847 34.0685 54.8812 34.8656 53.7191 35.4375C52.5569 36.0034 51.2032 36.2863 49.6577 36.2863C48.1062 36.2863 46.7494 36.0034 45.5872 35.4375C44.4251 34.8656 43.5216 34.0685 42.8766 33.0464C42.2317 32.0242 41.9092 30.8316 41.9092 29.4687V17.3303H45.861V29.131C45.861 29.8429 46.0162 30.4757 46.3265 31.0294C46.6429 31.583 47.087 32.0181 47.659 32.3345C48.2309 32.6509 48.8972 32.8091 49.6577 32.8091C50.4243 32.8091 51.0906 32.6509 51.6564 32.3345C52.2284 32.0181 52.6695 31.583 52.9798 31.0294C53.2962 30.4757 53.4544 29.8429 53.4544 29.131V17.3303Z" fill="#3D4140"/>
<path id="Vector_2" d="M36.4117 26.6759C36.4117 28.7142 36.0253 30.4483 35.2526 31.8781C34.4859 33.308 33.4394 34.4001 32.113 35.1546C30.7927 35.903 29.3081 36.2772 27.6592 36.2772C25.9981 36.2772 24.5075 35.8999 23.1871 35.1455C21.8668 34.391 20.8233 33.2989 20.0567 31.869C19.2901 30.4392 18.9067 28.7081 18.9067 26.6759C18.9067 24.6377 19.2901 22.9036 20.0567 21.4738C20.8233 20.0439 21.8668 18.9548 23.1871 18.2064C24.5075 17.4519 25.9981 17.0747 27.6592 17.0747C29.3081 17.0747 30.7927 17.4519 32.113 18.2064C33.4394 18.9548 34.4859 20.0439 35.2526 21.4738C36.0253 22.9036 36.4117 24.6377 36.4117 26.6759ZM32.4051 26.6759C32.4051 25.3556 32.2073 24.2422 31.8118 23.3356C31.4224 22.429 30.8718 21.7415 30.1599 21.273C29.448 20.8045 28.6145 20.5702 27.6592 20.5702C26.7039 20.5702 25.8704 20.8045 25.1585 21.273C24.4466 21.7415 23.8929 22.429 23.4974 23.3356C23.108 24.2422 22.9133 25.3556 22.9133 26.6759C22.9133 27.9963 23.108 29.1097 23.4974 30.0163C23.8929 30.9229 24.4466 31.6104 25.1585 32.0789C25.8704 32.5474 26.7039 32.7817 27.6592 32.7817C28.6145 32.7817 29.448 32.5474 30.1599 32.0789C30.8718 31.6104 31.4224 30.9229 31.8118 30.0163C32.2073 29.1097 32.4051 27.9963 32.4051 26.6759Z" fill="#3D4140"/>
<path id="Vector_3" d="M0 36.0216V17.3303H3.95184V25.5716H4.19826L10.9246 17.3303H15.6613L8.72508 25.6994L15.7435 36.0216H11.0159L5.89582 28.337L3.95184 30.7099V36.0216H0Z" fill="#3D4140"/>
<path id="Vector_4" d="M59.7139 12.6594V6.91449H60.4095L60.4455 7.90996C60.6054 7.57414 60.8573 7.30229 61.2011 7.0944C61.5529 6.87851 61.9407 6.77057 62.3645 6.77057C62.4764 6.77057 62.5883 6.77856 62.7003 6.79456C62.8202 6.80255 62.9202 6.81854 63.0001 6.84253V7.55016C62.9282 7.53416 62.8242 7.51817 62.6883 7.50218C62.5604 7.48619 62.4284 7.47819 62.2925 7.47819C61.9567 7.47819 61.6488 7.55815 61.369 7.71807C61.0891 7.86999 60.8653 8.07788 60.6973 8.34174C60.5374 8.5976 60.4575 8.88944 60.4575 9.21727V12.6594H59.7139Z" fill="#3D4140"/>
<path id="Vector_5" d="M54.5757 12.7914C54.056 12.7914 53.5922 12.6715 53.1844 12.4316C52.7847 12.1837 52.4688 11.8359 52.2369 11.3881C52.0131 10.9324 51.9011 10.3967 51.9011 9.781C51.9011 9.18132 52.0131 8.6576 52.2369 8.20984C52.4688 7.76207 52.7847 7.41426 53.1844 7.16639C53.5842 6.91052 54.04 6.78259 54.5517 6.78259C55.0714 6.78259 55.5112 6.91452 55.871 7.17838C56.2388 7.43425 56.5187 7.77007 56.7106 8.18585C56.9025 8.59363 56.9984 9.0254 56.9984 9.48116V9.72103H52.6327C52.6167 10.4407 52.7847 11.0243 53.1365 11.4721C53.4963 11.9119 53.98 12.1318 54.5877 12.1318C55.0355 12.1318 55.4113 12.0198 55.7151 11.7959C56.0189 11.5641 56.2668 11.2242 56.4587 10.7765L57.0584 11.1243C56.5467 12.2357 55.7191 12.7914 54.5757 12.7914ZM52.6807 9.09736H56.2788C56.2388 8.78553 56.1389 8.50168 55.979 8.24582C55.827 7.98995 55.6271 7.78606 55.3793 7.63414C55.1394 7.48222 54.8636 7.40626 54.5517 7.40626C54.064 7.40626 53.6522 7.55818 53.3164 7.86202C52.9885 8.15786 52.7767 8.56964 52.6807 9.09736Z" fill="#3D4140"/>
<path id="Vector_6" d="M46.5474 12.7913C46.0356 12.7913 45.5799 12.6674 45.1801 12.4195C44.7803 12.1637 44.4645 11.8119 44.2326 11.3641C44.0007 10.9083 43.8848 10.3806 43.8848 9.78093C43.8848 9.18125 44.0007 8.65753 44.2326 8.20977C44.4645 7.762 44.7803 7.41419 45.1801 7.16632C45.5799 6.91046 46.0356 6.78252 46.5474 6.78252C46.9791 6.78252 47.3629 6.88647 47.6987 7.09436C48.0346 7.29425 48.3024 7.57011 48.5023 7.92192V4H49.2339V12.6594H48.5623L48.5503 11.604C48.3424 11.9718 48.0665 12.2636 47.7227 12.4795C47.3789 12.6874 46.9871 12.7913 46.5474 12.7913ZM46.5713 12.1077C46.9471 12.1077 47.279 12.0117 47.5668 11.8199C47.8627 11.628 48.0945 11.3601 48.2624 11.0163C48.4304 10.6645 48.5143 10.2527 48.5143 9.78093C48.5143 9.30918 48.4304 8.9014 48.2624 8.55758C48.0945 8.21376 47.8627 7.94591 47.5668 7.75401C47.279 7.56211 46.9471 7.46616 46.5713 7.46616C46.1955 7.46616 45.8597 7.56211 45.5639 7.75401C45.268 7.94591 45.0362 8.21376 44.8682 8.55758C44.7003 8.9014 44.6164 9.30918 44.6164 9.78093C44.6164 10.2527 44.7003 10.6645 44.8682 11.0163C45.0362 11.3601 45.268 11.628 45.5639 11.8199C45.8597 12.0117 46.1955 12.1077 46.5713 12.1077Z" fill="#3D4140"/>
<path id="Vector_7" d="M38.8828 12.7914C38.3711 12.7914 37.9153 12.6634 37.5155 12.4076C37.1157 12.1517 36.7999 11.7999 36.568 11.3521C36.3362 10.8964 36.2202 10.3727 36.2202 9.78097C36.2202 9.18929 36.3362 8.66956 36.568 8.2218C36.7999 7.76604 37.1157 7.41023 37.5155 7.15437C37.9153 6.8985 38.3711 6.77057 38.8828 6.77057C39.4025 6.77057 39.8623 6.8985 40.2621 7.15437C40.6619 7.41023 40.9777 7.76604 41.2096 8.2218C41.4414 8.66956 41.5574 9.18929 41.5574 9.78097C41.5574 10.3727 41.4414 10.8964 41.2096 11.3521C40.9777 11.7999 40.6619 12.1517 40.2621 12.4076C39.8623 12.6634 39.4025 12.7914 38.8828 12.7914ZM38.8828 12.1077C39.2586 12.1077 39.5904 12.0118 39.8783 11.8199C40.1741 11.628 40.406 11.3601 40.5739 11.0163C40.7418 10.6645 40.8258 10.2527 40.8258 9.78097C40.8258 9.30922 40.7418 8.90144 40.5739 8.55762C40.406 8.20581 40.1741 7.93395 39.8783 7.74205C39.5904 7.55016 39.2586 7.45421 38.8828 7.45421C38.3231 7.45421 37.8593 7.66609 37.4915 8.08987C37.1317 8.50565 36.9518 9.06935 36.9518 9.78097C36.9518 10.4846 37.1317 11.0483 37.4915 11.4721C37.8593 11.8959 38.3231 12.1077 38.8828 12.1077Z" fill="#3D4140"/>
<path id="Vector_8" d="M32.0964 12.7914C31.5847 12.7914 31.1289 12.6675 30.7291 12.4196C30.3294 12.1637 30.0135 11.8079 29.7817 11.3522C29.5498 10.8964 29.4338 10.3727 29.4338 9.781C29.4338 9.18932 29.5498 8.66959 29.7817 8.22183C30.0135 7.76607 30.3294 7.41426 30.7291 7.16639C31.1289 6.91052 31.5847 6.78259 32.0964 6.78259C32.5042 6.78259 32.88 6.86655 33.2238 7.03446C33.5756 7.19437 33.8755 7.43425 34.1233 7.75408L33.5477 8.18585C33.1878 7.7061 32.7041 7.46623 32.0964 7.46623C31.5367 7.46623 31.073 7.67812 30.7052 8.10189C30.3454 8.51767 30.1654 9.07737 30.1654 9.781C30.1654 10.4846 30.3454 11.0483 30.7052 11.4721C31.073 11.8959 31.5367 12.1078 32.0964 12.1078C32.7041 12.1078 33.1878 11.8679 33.5477 11.3881L34.1233 11.8199C33.6116 12.4676 32.936 12.7914 32.0964 12.7914Z" fill="#3D4140"/>
<path id="Vector_9" d="M19.8795 12.7913C19.4397 12.7913 19.0479 12.6874 18.7041 12.4795C18.3603 12.2636 18.0844 11.9718 17.8765 11.604L17.8526 12.6594H17.1809V4H17.9125V7.92192C18.1204 7.57011 18.3923 7.29425 18.7281 7.09436C19.0639 6.88647 19.4477 6.78252 19.8795 6.78252C20.3912 6.78252 20.847 6.91046 21.2468 7.16632C21.6465 7.41419 21.9584 7.762 22.1823 8.20977C22.4141 8.65753 22.5301 9.18125 22.5301 9.78093C22.5301 10.3806 22.4141 10.9083 22.1823 11.3641C21.9584 11.8119 21.6465 12.1637 21.2468 12.4195C20.847 12.6674 20.3912 12.7913 19.8795 12.7913ZM19.8675 12.1077C20.2433 12.1077 20.5751 12.0117 20.863 11.8199C21.1588 11.628 21.3907 11.3601 21.5586 11.0163C21.7265 10.6645 21.8105 10.2527 21.8105 9.78093C21.8105 9.30918 21.7265 8.9014 21.5586 8.55758C21.3907 8.21376 21.1588 7.94591 20.863 7.75401C20.5751 7.56211 20.2433 7.46616 19.8675 7.46616C19.2998 7.46616 18.832 7.67805 18.4642 8.10182C18.0964 8.5176 17.9125 9.07731 17.9125 9.78093C17.9125 10.4846 18.0964 11.0483 18.4642 11.472C18.832 11.8958 19.2998 12.1077 19.8675 12.1077Z" fill="#3D4140"/>
<path id="Vector_10" d="M12.0425 12.7914C11.5228 12.7914 11.059 12.6715 10.6512 12.4316C10.2515 12.1837 9.93562 11.8359 9.70374 11.3881C9.47986 10.9324 9.36792 10.3967 9.36792 9.781C9.36792 9.18132 9.47986 8.6576 9.70374 8.20984C9.93562 7.76207 10.2515 7.41426 10.6512 7.16639C11.051 6.91052 11.5068 6.78259 12.0185 6.78259C12.5382 6.78259 12.978 6.91452 13.3378 7.17838C13.7056 7.43425 13.9855 7.77007 14.1774 8.18585C14.3693 8.59363 14.4652 9.0254 14.4652 9.48116V9.72103H10.0995C10.0835 10.4407 10.2515 11.0243 10.6033 11.4721C10.9631 11.9119 11.4468 12.1318 12.0545 12.1318C12.5023 12.1318 12.8781 12.0198 13.1819 11.7959C13.4857 11.5641 13.7336 11.2242 13.9255 10.7765L14.5252 11.1243C14.0135 12.2357 13.1859 12.7914 12.0425 12.7914ZM10.1475 9.09736H13.7456C13.7056 8.78553 13.6057 8.50168 13.4458 8.24582C13.2938 7.98995 13.0939 7.78606 12.8461 7.63414C12.6062 7.48222 12.3303 7.40626 12.0185 7.40626C11.5308 7.40626 11.119 7.55818 10.7832 7.86202C10.4553 8.15786 10.2435 8.56964 10.1475 9.09736Z" fill="#3D4140"/>
<path id="Vector_11" d="M1.79905 12.6594L0 6.91443H0.719618L2.09889 11.484L3.45417 6.91443H4.04186L5.39714 11.484L6.7764 6.91443H7.49602L5.69698 12.6594H5.10929L3.75401 8.07781L2.37474 12.6594H1.79905Z" fill="#3D4140"/>
</g>
</g>
</svg>
